<svg width="32" height="32" viewBox="0 0 32 32" xmlns="http://www.w3.org/2000/svg">
  <!-- Background circle with gradient -->
  <defs>
    <radialGradient id="bgGradient" cx="50%" cy="30%" r="70%">
      <stop offset="0%" style="stop-color:#FFD700;stop-opacity:1" />
      <stop offset="100%" style="stop-color:#4B0082;stop-opacity:1" />
    </radialGradient>
    <filter id="glow">
      <feGaussianBlur stdDeviation="1" result="coloredBlur"/>
      <feMerge> 
        <feMergeNode in="coloredBlur"/>
        <feMergeNode in="SourceGraphic"/>
      </feMerge>
    </filter>
  </defs>
  
  <!-- Main background -->
  <circle cx="16" cy="16" r="15" fill="url(#bgGradient)" stroke="#FFD700" stroke-width="1"/>
  
  <!-- Heart symbol representing "Loved" -->
  <path d="M16 24c0 0-8-5-8-10.5C8 10.5 10.5 8 13.5 8S19 10.5 19 13.5C19 19 16 24 16 24z M16 24c0 0 8-5 8-10.5C24 10.5 21.5 8 18.5 8S13 10.5 13 13.5C13 19 16 24 16 24z" 
        fill="#FFD700" 
        filter="url(#glow)" 
        transform="scale(0.6) translate(5.5, 2)"/>
  
  <!-- Crown symbol representing "Called and Chosen" -->
  <path d="M6 18h20l-2-6-4 3-6-4-6 4-2 6z" 
        fill="#FFFFFF" 
        opacity="0.9" 
        transform="scale(0.5) translate(16, 20)"/>
  
  <!-- Small cross for spiritual element -->
  <path d="M15 6h2v8h-2zM12 9h8v2h-8z" 
        fill="#FFFFFF" 
        opacity="0.8"/>
</svg>